#!OML:ASF H:\GeneralSubjects\Female5\Project 1\Capture day 1\Session 1\Female5.ASF
:FULLY-SPECIFIED
:DEGREES
336
root -2.3283 15.7757 3.91604 120.503 -82.6771 608.503
lowerback 23.0747 7.7624 19.2442
upperback -15.2184 16.0818 -10.9862
thorax -26.2137 -0.959618 -37.2668
lowerneck -3.80669 -9.36483 3.71076
upperneck 45.0674 -27.8233 15.1351
head 22.1303 -10.4575 1.22174
rclavicle 3.65764e-014 -4.13472e-014
rhumerus -69.0443 -20.2997 -82.4556
rradius 38.132
rwrist -8.12924
rhand -24.5018 -16.6464
rfingers 7.12502
rthumb 1.99276 -46.6169
lclavicle 3.65764e-014 -4.13472e-014
lhumerus -59.8712 -48.056 93.497
lradius 36.2901
lwrist -8.99241
lhand -25.5263 33.9724
lfingers 7.12502
lthumb 1.00328 63.9498
rfemur -9.20708 10.4739 37.0308
rtibia 5.86027
rfoot -18.1427 -15.7056
rtoes 1.83149
lfemur -23.0774 3.03853 -18.0509
ltibia 62.2485
lfoot -13.6553 19.8344
ltoes -65.8015
337
root -2.58478 15.7928 3.87436 119.774 -82.6026 609.163
lowerback 23.4025 7.83159 19.2705
upperback -15.1925 16.2891 -10.9446
thorax -26.2948 -0.911301 -37.4033
lowerneck -3.61124 -9.36397 3.36813
upperneck 44.9459 -27.7333 15.332
head 22.0979 -10.4792 1.41201
rclavicle 1.20861e-013 -6.67916e-014
rhumerus -68.0645 -19.6963 -82.3056
rradius 38.138
rwrist -7.93032
rhand -24.6119 -16.6793
rfingers 7.12502
rthumb 1.88642 -46.6507
lclavicle 1.20861e-013 -6.67916e-014
lhumerus -58.7242 -47.2353 91.6443
lradius 36.8998
lwrist -7.64572
lhand -26.4879 34.908
lfingers 7.12502
lthumb 0.0745377 64.8878
rfemur -7.55099 10.9599 37.4464
rtibia 4.94006
rfoot -18.432 -16.2979
rtoes 0.762278
lfemur -26.3857 3.38404 -18.0748
ltibia 61.2227
lfoot -15.7865 18.1167
ltoes -66.4271
338
root -2.83875 15.8074 3.83079 118.571 -82.3006 610.323
lowerback 23.6664 7.8897 19.4519
upperback -15.1754 16.5478 -10.8506
thorax -26.2273 -0.784349 -37.4666
lowerneck -3.68111 -9.42062 3.50842
upperneck 44.938 -27.5487 14.9838
head 21.8716 -10.3848 1.26347
rclavicle 1.81292e-013 -3.18055e-014
rhumerus -66.8904 -19.2748 -81.8622
rradius 38.0332
rwrist -7.03197
rhand -24.5953 -18.0737
rfingers 7.12502
rthumb 1.90245 -48.045
lclavicle 1.81292e-013 -3.18055e-014
lhumerus -57.5234 -46.4127 89.9075
lradius 37.4724
lwrist -5.64043
lhand -26.6758 35.7948
lfingers 7.12502
lthumb -0.106955 65.7745
rfemur -5.88497 11.7875 38.1884
rtibia 4.00828
rfoot -18.9849 -16.9451
rtoes 0.461777
lfemur -29.4401 3.68097 -17.7792
ltibia 59.3745
lfoot -17.5163 16.8343
ltoes -66.7362
339
root -3.09644 15.8162 3.78866 117.802 -82.1138 611.093
lowerback 23.8384 7.99828 19.4817
upperback -15.1725 16.7757 -10.8129
thorax -26.1498 -0.640071 -37.4671
lowerneck -3.81071 -9.40386 3.59446
upperneck 45.0258 -27.3755 14.7449
head 21.8276 -10.2852 1.16943
rclavicle 1.04163e-013 6.36111e-015
rhumerus -65.7487 -18.9975 -81.3439
rradius 37.7963
rwrist -6.39918
rhand -24.5233 -19.1652
rfingers 7.12502
rthumb 1.97192 -49.1358
lclavicle 1.04163e-013 6.36111e-015
lhumerus -56.3093 -45.555 88.2026
lradius 37.8727
lwrist -3.85075
lhand -27.4838 36.204
lfingers 7.12502
lthumb -0.887404 66.1819
rfemur -4.13339 12.7728 38.8652
rtibia 2.90512
rfoot -19.7514 -17.6382
rtoes 1.12516
lfemur -32.0939 3.75938 -17.5834
ltibia 56.6763
lfoot -18.343 16.4977
ltoes -67.2428
340
root -3.36276 15.8184 3.75674 116.658 -81.9975 612.231
lowerback 23.9497 8.09119 19.5656
upperback -15.191 16.9905 -10.7938
thorax -26.0626 -0.52475 -37.5455
lowerneck -3.84582 -9.40943 3.56668
upperneck 45.1103 -27.2817 14.5999
head 21.835 -10.2428 1.12772
rclavicle 5.80451e-014 -1.62208e-013
rhumerus -64.6925 -18.784 -80.8129
rradius 37.3453
rwrist -5.9775
rhand -24.4165 -19.1385
rfingers 7.12502
rthumb 2.07509 -49.1082
lclavicle 5.80451e-014 -1.62208e-013
lhumerus -55.4802 -44.7084 86.7635
lradius 38.3666
lwrist -2.27615
lhand -27.9705 36.6372
lfingers 7.12502
lthumb -1.35741 66.6126
rfemur -2.27329 13.3968 39.5196
rtibia 1.68295
rfoot -20.4669 -18.2645
rtoes 0.540987
lfemur -34.2083 3.37623 -17.394
ltibia 53.0354
lfoot -19.1991 16.0145
ltoes -67.1021
341
root -3.6327 15.8177 3.7364 114.804 -81.742 614.146
lowerback 23.9519 8.12922 19.9135
upperback -15.2671 17.2392 -10.7374
thorax -25.8974 -0.423653 -37.7319
lowerneck -3.86598 -9.37199 3.66172
upperneck 45.3159 -27.1134 14.3129
head 21.845 -10.1595 1.01794
rclavicle 2.3059e-014 -4.45278e-014
rhumerus -63.5928 -18.5756 -80.3316
rradius 36.7204
rwrist -5.46681
rhand -24.5528 -18.7143
rfingers 7.12502
rthumb 1.94346 -48.6852
lclavicle 2.3059e-014 -4.45278e-014
lhumerus -54.9748 -43.9767 85.5649
lradius 38.9387
lwrist -1.13867
lhand -27.2092 37.3393
lfingers 7.12502
lthumb -0.622172 67.3182
rfemur -0.495279 13.7995 40.3123
rtibia 0.482936
rfoot -20.995 -18.7786
rtoes -0.39029
lfemur -35.9743 2.47004 -16.8712
ltibia 48.6268
lfoot -19.98 15.4552
ltoes -66.5325
342
root -3.90211 15.8144 3.71706 113.445 -81.4217 615.675
lowerback 23.8994 8.17414 20.2558
upperback -15.3965 17.4916 -10.6803
thorax -25.7886 -0.350682 -37.9283
lowerneck -3.87836 -9.29011 3.86071
upperneck 45.5974 -26.9052 13.9766
head 21.8745 -10.047 0.877639
rclavicle 5.1684e-014 -1.90833e-014
rhumerus -62.441 -18.3231 -80.0224
rradius 36.0623
rwrist -5.06559
rhand -24.8397 -19.0247
rfingers 7.12502
rthumb 1.66636 -48.998
lclavicle 5.1684e-014 -1.90833e-014
lhumerus -54.8387 -43.5608 84.7488
lradius 39.3125
lwrist 0.117155
lhand -26.8133 37.0406
lfingers 7.12502
lthumb -0.23981 67.0202
rfemur 1.06653 14.5734 41.1568
rtibia -0.568065
rfoot -21.2825 -19.9786
rtoes -3.11085
lfemur -37.5027 1.21543 -15.9844
ltibia 43.504
lfoot -20.3199 16.0534
ltoes -67.0764
343
root -4.17295 15.8046 3.70036 112.689 -81.0613 616.608
lowerback 23.9161 8.2379 20.5505
upperback -15.5582 17.7787 -10.6119
thorax -25.8022 -0.313193 -38.1562
lowerneck -3.8128 -9.2142 3.82866
upperneck 45.787 -26.7897 13.9052
head 21.9827 -10.0038 0.883802
rclavicle 7.79236e-014 -8.5875e-014
rhumerus -61.3853 -18.0515 -79.9035
rradius 35.4425
rwrist -4.92853
rhand -25.4821 -19.0056
rfingers 7.12502
rthumb 1.04598 -48.9828
lclavicle 7.79236e-014 -8.5875e-014
lhumerus -55.1479 -43.4248 84.3872
lradius 39.4893
lwrist 1.51322
lhand -27.3778 35.4674
lfingers 7.12502
lthumb -0.784962 65.4457
rfemur 2.53312 15.4427 42.0205
rtibia -1.43271
rfoot -21.4107 -21.2122
rtoes -5.92012
lfemur -38.5815 -0.464386 -14.6726
ltibia 37.6001
lfoot -20.1733 17.5238
ltoes -68.0091
344
root -4.44294 15.7877 3.69734 111.586 -80.6611 617.954
lowerback 23.8672 8.25832 20.9994
upperback -15.7447 18.0668 -10.5261
thorax -25.7648 -0.290028 -38.443
lowerneck -3.7412 -9.17831 3.83015
upperneck 45.9488 -26.6607 13.7249
head 22.0026 -9.96153 0.835273
rclavicle -4.05521e-014 4.77083e-014
rhumerus -60.3764 -17.8375 -79.808
rradius 34.86
rwrist -4.7188
rhand -26.046 -19.1132
rfingers 7.12502
rthumb 0.501296 -49.0924
lclavicle -4.05521e-014 4.77083e-014
lhumerus -55.476 -43.2622 84.0537
lradius 39.6035
lwrist 1.68705
lhand -27.0445 35.0773
lfingers 7.12502
lthumb -0.463036 65.0566
rfemur 3.84547 15.7811 42.8103
rtibia -2.18086
rfoot -21.6579 -21.7842
rtoes -7.56121
lfemur -39.3026 -2.9554 -12.8016
ltibia 31.1711
lfoot -20.109 18.2799
ltoes -66.8971
345
root -4.71571 15.7672 3.6997 110.791 -80.1653 619.078
lowerback 23.7084 8.29087 21.5171
upperback -15.9737 18.3808 -10.4321
thorax -25.6472 -0.226702 -38.6831
lowerneck -3.70801 -9.12045 3.90412
upperneck 46.0549 -26.479 13.5424
head 21.9577 -9.88485 0.782043
rclavicle -9.54166e-014 -2.8625e-014
rhumerus -59.468 -17.7874 -79.4773
rradius 34.5112
rwrist -3.7277
rhand -25.6452 -20.3911
rfingers 7.12502
rthumb 0.88846 -50.369
lclavicle -9.54166e-014 -2.8625e-014
lhumerus -55.8436 -43.2131 83.8195
lradius 39.6144
lwrist 1.07945
lhand -26.1641 36.0316
lfingers 7.12502
lthumb 0.387281 66.011
rfemur 4.88573 16.0451 43.6171
rtibia -2.67106
rfoot -21.8088 -22.3659
rtoes -9.28282
lfemur -39.798 -6.26889 -10.0565
ltibia 24.4586
lfoot -21.3342 18.9273
ltoes -65.1601
346
root -4.9987 15.7423 3.69848 111.465 -79.7054 618.664
lowerback 23.6162 8.40275 21.8341
upperback -16.1928 18.724 -10.3683
thorax -25.5815 -0.127425 -38.8429
lowerneck -3.68116 -9.05039 3.63806
upperneck 46.0525 -26.3809 13.6906
head 22.0503 -9.87718 0.919347
rclavicle -1.51076e-014 -2.8625e-014
rhumerus -58.6718 -17.6694 -79.3391
rradius 34.4785
rwrist -2.81997
rhand -25.0755 -21.175
rfingers 7.12502
rthumb 1.43867 -51.1499
lclavicle -1.51076e-014 -2.8625e-014
lhumerus -56.413 -43.3974 83.8472
lradius 39.4381
lwrist 0.551362
lhand -25.8223 36.5929
lfingers 7.12502
lthumb 0.717342 66.5714
rfemur 5.94693 16.8189 44.4259
rtibia -2.86972
rfoot -22.513 -22.8834
rtoes -8.94469
lfemur -39.9789 -10.6937 -6.23814
ltibia 17.405
lfoot -23.1187 20.3848
ltoes -64.1178
347
root -5.28981 15.7099 3.69988 112.857 -79.3964 617.461
lowerback 23.592 8.53086 21.9884
upperback -16.366 19.0167 -10.3502
thorax -25.5804 -0.0547356 -39.0059
lowerneck -3.68831 -9.01434 3.40507
upperneck 46.0383 -26.3132 13.7823
head 22.1162 -9.8802 1.01406
rclavicle -7.87187e-014 2.22639e-014
rhumerus -57.9387 -17.3736 -79.6435
rradius 34.7373
rwrist -2.65312
rhand -25.2569 -20.8892
rfingers 7.12502
rthumb 1.26344 -50.8653
lclavicle -7.87187e-014 2.22639e-014
lhumerus -56.9222 -43.4633 83.7979
lradius 39.0489
lwrist -0.312251
lhand -25.7668 36.671
lfingers 7.12502
lthumb 0.771004 66.6494
rfemur 7.04063 17.4146 45.0096
rtibia -2.8544
rfoot -23.5458 -22.7801
rtoes -7.11295
lfemur -40.3817 -16.0644 -1.6737
ltibia 11.6263
lfoot -25.6604 25.1556
ltoes -64.9589
348
root -5.58697 15.6691 3.7107 114.132 -79.0879 616.403
lowerback 23.4858 8.65139 22.1957
upperback -16.5598 19.2964 -10.3619
thorax -25.5358 0.00525187 -39.2376
lowerneck -3.70248 -8.92915 3.26449
upperneck 46.0899 -26.2637 13.9271
head 22.2592 -9.87052 1.11626
rclavicle -7.79236e-014 -8.90555e-014
rhumerus -57.3668 -17.1306 -80.136
rradius 35.2377
rwrist -2.69996
rhand -25.5061 -20.0427
rfingers 7.12502
rthumb 1.0228 -50.02
lclavicle -7.79236e-014 -8.90555e-014
lhumerus -57.4028 -43.4749 83.631
lradius 38.4888
lwrist -1.3433
lhand -25.6111 36.4095
lfingers 7.12502
lthumb 0.921381 66.3873
rfemur 7.82062 17.01 45.3049
rtibia -2.60122
rfoot -23.5503 -22.3549
rtoes -8.30542
lfemur -41.5687 -21.262 3.21346
ltibia 7.61435
lfoot -30.3633 29.2307
ltoes -64.4743
349
root -5.89577 15.6164 3.72697 115.825 -78.8843 614.869
lowerback 23.2919 8.81697 22.2531
upperback -16.747 19.5276 -10.4281
thorax -25.4572 0.0923609 -39.3821
lowerneck -3.751 -8.88515 3.55984
upperneck 46.2204 -26.155 13.6835
head 22.2057 -9.78872 0.970825
rclavicle -4.13472e-014 9.54166e-015
rhumerus -57.0181 -17.1044 -80.5777
rradius 35.9263
rwrist -2.56371
rhand -24.4236 -19.4814
rfingers 7.12502
rthumb 2.06822 -49.4511
lclavicle -4.13472e-014 9.54166e-015
lhumerus -57.9338 -43.555 83.3875
lradius 37.8758
lwrist -2.57276
lhand -24.5285 35.9983
lfingers 7.12502
lthumb 1.96693 65.969
rfemur 8.70925 16.5718 45.4623
rtibia -2.32695
rfoot -23.429 -22.019
rtoes -10.0457
lfemur -42.918 -24.9918 6.9617
ltibia 5.38115
lfoot -34.9709 31.7526
ltoes -63.4189
350
root -6.21696 15.5565 3.74243 117.909 -78.629 612.852
lowerback 23.1287 9.00935 22.2274
upperback -16.939 19.7684 -10.4858
thorax -25.4275 0.188124 -39.4568
lowerneck -3.74059 -8.85046 3.96441
upperneck 46.3186 -26.0384 13.4058
head 22.0644 -9.69857 0.798812
rclavicle -6.36111e-015 -3.18055e-015
rhumerus -56.828 -17.0234 -81.1914
rradius 36.8557
rwrist -2.75901
rhand -23.7733 -19.6011
rfingers 7.12502
rthumb 2.69629 -49.5639
lclavicle -6.36111e-015 -3.18055e-015
lhumerus -58.0561 -43.2816 82.6182
lradius 37.1806
lwrist -5.0321
lhand -21.6523 36.6363
lfingers 7.12502
lthumb 4.74453 66.5632
rfemur 9.74851 16.2399 45.6549
rtibia -1.81323
rfoot -24.0177 -20.9292
rtoes -8.72829
lfemur -43.4379 -26.3385 8.33628
ltibia 4.78924
lfoot -37.6269 31.1703
ltoes -62.389
